<svg xmlns="http://www.w3.org/2000/svg" width="124.534" height="113.624" viewBox="0 0 124.534 113.624">
  <g id="Group_6942" data-name="Group 6942" transform="translate(-125.233 -349.188)">
    <g id="Group_6941" data-name="Group 6941" transform="translate(125.233 442.947)">
      <path id="Path_1605" data-name="Path 1605" d="M139.394,54.785q-5.762,0-5.762-5.5a19.986,19.986,0,0,1,1.377-7.507,14.791,14.791,0,0,1,1.855-3.359,8.321,8.321,0,0,1,2.8-2.371,7.954,7.954,0,0,1,3.809-.907,14.539,14.539,0,0,1,4.13.614l.675.223-.9,2.846a21.661,21.661,0,0,0-4.048-.335,3.99,3.99,0,0,0-3.078,1.534,9.762,9.762,0,0,0-1.982,3.906,19.235,19.235,0,0,0-.646,5.077q0,2.427,2.277,2.427a24.909,24.909,0,0,0,3.909-.279l.644-.084-.309,2.985A17.919,17.919,0,0,1,139.394,54.785Z" transform="translate(-133.632 -34.92)" fill="#fff"/>
      <path id="Path_1606" data-name="Path 1606" d="M139.032,54.576l4.525-19.527h3.767L142.8,54.576Z" transform="translate(-126.383 -35.049)" fill="#fff"/>
      <path id="Path_1607" data-name="Path 1607" d="M146.039,47.253a1.338,1.338,0,0,0,.576,1.138,2.386,2.386,0,0,0,1.448.422,28.441,28.441,0,0,0,3.963-.283l.731-.082-.422,2.783a17.951,17.951,0,0,1-5.172.787,5.14,5.14,0,0,1-3.724-1.152,4.529,4.529,0,0,1-1.167-3.373,15.9,15.9,0,0,1,.45-3.963,11.036,11.036,0,0,1,1.335-3.148,6.393,6.393,0,0,1,2.417-2.235,7.234,7.234,0,0,1,3.5-.829q4.916,0,4.919,4.186a3.854,3.854,0,0,1-1.8,3.685q-1.8,1.012-5.987,1.012h-.984A4.742,4.742,0,0,0,146.039,47.253Zm1.658-3.837a6.156,6.156,0,0,0,2.712-.422,1.5,1.5,0,0,0,.773-1.434q0-1.209-1.405-1.209-2.5,0-3.233,3.064Z" transform="translate(-122.011 -32.153)" fill="#fff"/>
      <path id="Path_1608" data-name="Path 1608" d="M148.528,37.449h3.682l-.393,10.934h.5l4.809-10.934h3.795L154.319,51.5h-5.9Z" transform="translate(-113.747 -31.976)" fill="#fff"/>
      <path id="Path_1609" data-name="Path 1609" d="M157.115,47.253a1.338,1.338,0,0,0,.576,1.138,2.386,2.386,0,0,0,1.448.422,28.44,28.44,0,0,0,3.963-.283l.731-.082-.422,2.783a17.952,17.952,0,0,1-5.172.787,5.14,5.14,0,0,1-3.724-1.152,4.538,4.538,0,0,1-1.166-3.373,15.9,15.9,0,0,1,.45-3.963,11.035,11.035,0,0,1,1.335-3.148,6.393,6.393,0,0,1,2.417-2.235,7.234,7.234,0,0,1,3.5-.829q4.919,0,4.919,4.186a3.854,3.854,0,0,1-1.8,3.685q-1.8,1.012-5.987,1.012H157.2A4.739,4.739,0,0,0,157.115,47.253Zm1.658-3.837a6.156,6.156,0,0,0,2.713-.422,1.5,1.5,0,0,0,.773-1.434q0-1.209-1.405-1.209-2.5,0-3.232,3.064Z" transform="translate(-107.113 -32.153)" fill="#fff"/>
      <path id="Path_1610" data-name="Path 1610" d="M158.748,51.7l3.232-14.054h3.738l-.506,2.024a12.191,12.191,0,0,1,2.164-1.5,6.385,6.385,0,0,1,2.249-.857l-1.1,3.935a30.051,30.051,0,0,0-3.289,1.293l-.675.309L162.515,51.7Z" transform="translate(-99.851 -32.169)" fill="#fff"/>
      <path id="Path_1611" data-name="Path 1611" d="M171.685,54.785q-5.762,0-5.762-5.5a19.986,19.986,0,0,1,1.377-7.507,14.792,14.792,0,0,1,1.855-3.359,8.321,8.321,0,0,1,2.8-2.371,7.954,7.954,0,0,1,3.809-.907,14.539,14.539,0,0,1,4.13.614l.675.223-.9,2.846a21.705,21.705,0,0,0-4.05-.335,3.982,3.982,0,0,0-3.076,1.534,9.734,9.734,0,0,0-1.984,3.906,19.234,19.234,0,0,0-.647,5.077q0,2.427,2.277,2.427a24.91,24.91,0,0,0,3.909-.279l.644-.084-.309,2.985A17.919,17.919,0,0,1,171.685,54.785Z" transform="translate(-90.197 -34.92)" fill="#fff"/>
      <path id="Path_1612" data-name="Path 1612" d="M178.593,37.317q5.534,0,5.535,5.313a12.665,12.665,0,0,1-.757,4.357,8.652,8.652,0,0,1-2.431,3.556,5.743,5.743,0,0,1-3.921,1.476q-5.537,0-5.54-5.312a11.933,11.933,0,0,1,.817-4.357,8.955,8.955,0,0,1,2.488-3.57A5.618,5.618,0,0,1,178.593,37.317Zm-1.574,11.5q1.514,0,2.445-1.925a9.846,9.846,0,0,0,.928-4.315c0-1.368-.6-2.052-1.8-2.052q-1.521,0-2.445,1.925a9.813,9.813,0,0,0-.928,4.315Q175.22,48.813,177.019,48.813Z" transform="translate(-82.726 -32.153)" fill="#fff"/>
      <path id="Path_1613" data-name="Path 1613" d="M184.219,40.521a1.905,1.905,0,0,0-1.293.394,1.184,1.184,0,0,0-.45.914.858.858,0,0,0,.394.773,10.888,10.888,0,0,0,2.038.759,7.618,7.618,0,0,1,2.473,1.167,2.588,2.588,0,0,1,.829,2.15,4.754,4.754,0,0,1-1.729,3.991,7.266,7.266,0,0,1-4.6,1.349,12.654,12.654,0,0,1-2.431-.239,9.612,9.612,0,0,1-1.813-.492l-.618-.225.7-2.755a25.836,25.836,0,0,0,4.666.506q1.968,0,1.968-1.377a.64.64,0,0,0-.394-.576,7.865,7.865,0,0,0-1.349-.492,8.571,8.571,0,0,1-2.951-1.321,2.6,2.6,0,0,1-.956-2.164,5.109,5.109,0,0,1,1.715-4.09,6.121,6.121,0,0,1,4.132-1.476,15.7,15.7,0,0,1,2.586.211,10.517,10.517,0,0,1,1.855.436l.618.225-.675,2.783A32.078,32.078,0,0,0,184.219,40.521Z" transform="translate(-75.257 -32.153)" fill="#fff"/>
      <path id="Path_1614" data-name="Path 1614" d="M186.75,49.8q0,.781.815.781l1.911-.139-.309,2.676a7.75,7.75,0,0,1-3.078.641,3.227,3.227,0,0,1-2.417-.85,2.845,2.845,0,0,1-.829-2.063,12.751,12.751,0,0,1,.422-2.941l1.237-5.241h-1.518l.843-3.178h1.434l.815-3.568h3.766l-.815,3.568h2.951l-.787,3.178h-2.923l-1.293,5.575A7.041,7.041,0,0,0,186.75,49.8Z" transform="translate(-67.445 -33.889)" fill="#fff"/>
    </g>
    <g id="Group_6940" data-name="Group 6940" transform="translate(-0.628 191)">
      <g id="Group_6926" data-name="Group 6926" transform="translate(145.862 158.188)">
        <path id="Path_1584" data-name="Path 1584" d="M132.5,934.423l36.4,8.845c-6.224,8.8-28.838,25.043-54.785,31.429a116.976,116.976,0,0,0-26.685-9.513C94.829,962.087,120.747,951.68,132.5,934.423Z" transform="translate(-84.857 -900.802)" fill="#71a4ff"/>
        <path id="Path_1585" data-name="Path 1585" d="M124.637,930.008l34.586,5.079c-4.842,23.132-20.814,38.06-44.252,45.613-7.5-4.244-19.435-7.97-27.894-9.644C94.579,965.857,121.671,961.724,124.637,930.008Z" transform="translate(-85.771 -912.287)" fill="#aecbfe"/>
        <path id="Path_1586" data-name="Path 1586" d="M115.411,925.084l34.7,7.11c-1.073,17.574-14.561,50.81-34.108,55.76a159.807,159.807,0,0,0-29.291-9.921C94.219,972.843,112.442,956.8,115.411,925.084Z" transform="translate(-86.714 -925.084)" fill="#fff"/>
      </g>
    </g>
  </g>
</svg>
