<svg xmlns="http://www.w3.org/2000/svg" xmlns:xlink="http://www.w3.org/1999/xlink" width="138.185" height="127.131" viewBox="0 0 138.185 127.131">
  <defs>
    <linearGradient id="linear-gradient" x1="0.5" x2="0.5" y2="1" gradientUnits="objectBoundingBox">
      <stop offset="0" stop-color="#347dfe"/>
      <stop offset="1" stop-color="#347dfe"/>
    </linearGradient>
  </defs>
  <g id="Group_6950" data-name="Group 6950" transform="translate(-109 -154)">
    <g id="Group_6948" data-name="Group 6948" transform="translate(109 258.924)">
      <g id="Group_3494" data-name="Group 3494" transform="translate(0 0)">
        <path id="Path_1605" data-name="Path 1605" d="M140.026,57.1q-6.394,0-6.394-6.144a22.494,22.494,0,0,1,1.528-8.393,16.573,16.573,0,0,1,2.058-3.756,9.251,9.251,0,0,1,3.106-2.651,8.772,8.772,0,0,1,4.226-1.014,16.021,16.021,0,0,1,4.582.686l.749.25-1,3.181a23.859,23.859,0,0,0-4.491-.374,4.416,4.416,0,0,0-3.415,1.715,10.944,10.944,0,0,0-2.2,4.367,21.657,21.657,0,0,0-.717,5.677q0,2.713,2.526,2.713a27.436,27.436,0,0,0,4.338-.312l.715-.094-.343,3.337A19.745,19.745,0,0,1,140.026,57.1Z" transform="translate(-133.632 -34.895)" fill="#43425d"/>
        <path id="Path_1606" data-name="Path 1606" d="M139.032,56.882l5.022-21.833h4.179l-5.022,21.833Z" transform="translate(-124.997 -35.049)" fill="#43425d"/>
        <path id="Path_1607" data-name="Path 1607" d="M146.451,48.343a1.485,1.485,0,0,0,.639,1.263,2.648,2.648,0,0,0,1.606.468,31.558,31.558,0,0,0,4.4-.314l.811-.091-.468,3.088a19.919,19.919,0,0,1-5.739.873,5.7,5.7,0,0,1-4.133-1.279,5.025,5.025,0,0,1-1.294-3.743,17.648,17.648,0,0,1,.5-4.4,12.245,12.245,0,0,1,1.481-3.493,7.094,7.094,0,0,1,2.682-2.48,8.027,8.027,0,0,1,3.883-.92q5.454,0,5.458,4.645,0,2.967-2,4.088t-6.643,1.123h-1.092A5.26,5.26,0,0,0,146.451,48.343Zm1.84-4.257a6.831,6.831,0,0,0,3.01-.468,1.663,1.663,0,0,0,.858-1.591q0-1.341-1.559-1.341-2.776,0-3.587,3.4Z" transform="translate(-119.79 -31.422)" fill="#43425d"/>
        <path id="Path_1608" data-name="Path 1608" d="M148.541,37.449h4.086l-.437,12.133h.559l5.336-12.133H162.3l-7.33,15.595h-6.55Z" transform="translate(-109.946 -31.211)" fill="#43425d"/>
        <path id="Path_1609" data-name="Path 1609" d="M157.527,48.343a1.485,1.485,0,0,0,.639,1.263,2.648,2.648,0,0,0,1.606.468,31.557,31.557,0,0,0,4.4-.314l.811-.091-.468,3.088a19.92,19.92,0,0,1-5.739.873,5.7,5.7,0,0,1-4.133-1.279,5.036,5.036,0,0,1-1.294-3.743,17.648,17.648,0,0,1,.5-4.4,12.245,12.245,0,0,1,1.482-3.493,7.094,7.094,0,0,1,2.682-2.48,8.027,8.027,0,0,1,3.883-.92q5.458,0,5.458,4.645,0,2.967-2,4.088t-6.643,1.123h-1.092A5.259,5.259,0,0,0,157.527,48.343Zm1.84-4.257a6.831,6.831,0,0,0,3.01-.468,1.663,1.663,0,0,0,.858-1.591q0-1.341-1.559-1.341-2.776,0-3.587,3.4Z" transform="translate(-102.045 -31.422)" fill="#43425d"/>
        <path id="Path_1610" data-name="Path 1610" d="M158.748,53.274l3.587-15.595h4.148l-.561,2.246a13.528,13.528,0,0,1,2.4-1.669,7.085,7.085,0,0,1,2.5-.951L169.6,41.672a33.342,33.342,0,0,0-3.649,1.435l-.749.343-2.277,9.825Z" transform="translate(-93.395 -31.441)" fill="#43425d"/>
        <path id="Path_1611" data-name="Path 1611" d="M172.317,57.1q-6.394,0-6.394-6.144a22.494,22.494,0,0,1,1.528-8.393,16.575,16.575,0,0,1,2.059-3.756,9.252,9.252,0,0,1,3.106-2.651,8.772,8.772,0,0,1,4.226-1.014,16.021,16.021,0,0,1,4.582.686l.749.25-1,3.181a23.908,23.908,0,0,0-4.494-.374,4.407,4.407,0,0,0-3.413,1.715,10.913,10.913,0,0,0-2.2,4.367,21.657,21.657,0,0,0-.717,5.677q0,2.713,2.526,2.713a27.436,27.436,0,0,0,4.338-.312l.715-.094-.343,3.337A19.745,19.745,0,0,1,172.317,57.1Z" transform="translate(-81.896 -34.895)" fill="#43425d"/>
        <path id="Path_1612" data-name="Path 1612" d="M179.373,37.317q6.14,0,6.142,5.895a14.053,14.053,0,0,1-.84,4.834,9.6,9.6,0,0,1-2.7,3.945,6.372,6.372,0,0,1-4.351,1.637q-6.144,0-6.147-5.895a13.242,13.242,0,0,1,.907-4.834,9.937,9.937,0,0,1,2.76-3.961A6.234,6.234,0,0,1,179.373,37.317Zm-1.747,12.757q1.68,0,2.714-2.136a10.925,10.925,0,0,0,1.029-4.788c0-1.518-.668-2.277-2-2.277q-1.688,0-2.714,2.136A10.889,10.889,0,0,0,175.63,47.8Q175.63,50.074,177.626,50.074Z" transform="translate(-72.997 -31.422)" fill="#43425d"/>
        <path id="Path_1613" data-name="Path 1613" d="M185.008,40.873a2.114,2.114,0,0,0-1.435.437,1.314,1.314,0,0,0-.5,1.014.952.952,0,0,0,.437.858,12.082,12.082,0,0,0,2.261.842,8.453,8.453,0,0,1,2.745,1.294,2.871,2.871,0,0,1,.92,2.386,5.275,5.275,0,0,1-1.918,4.429,8.063,8.063,0,0,1-5.1,1.5,14.04,14.04,0,0,1-2.7-.265,10.666,10.666,0,0,1-2.012-.546l-.686-.25.78-3.057a28.668,28.668,0,0,0,5.177.561q2.183,0,2.183-1.528a.71.71,0,0,0-.437-.639,8.728,8.728,0,0,0-1.5-.546,9.511,9.511,0,0,1-3.275-1.466,2.888,2.888,0,0,1-1.06-2.4,5.669,5.669,0,0,1,1.9-4.538,6.792,6.792,0,0,1,4.585-1.637,17.426,17.426,0,0,1,2.869.234,11.67,11.67,0,0,1,2.058.483l.686.25-.749,3.088A35.594,35.594,0,0,0,185.008,40.873Z" transform="translate(-64.102 -31.422)" fill="#43425d"/>
        <path id="Path_1614" data-name="Path 1614" d="M187.178,51.445a.786.786,0,0,0,.9.873l2.121-.156-.343,2.994a8.539,8.539,0,0,1-3.415.717,3.563,3.563,0,0,1-2.682-.951,3.2,3.2,0,0,1-.92-2.308,14.377,14.377,0,0,1,.468-3.29l1.372-5.864H183l.936-3.556h1.591l.9-3.992h4.179l-.9,3.992h3.275l-.873,3.556h-3.244L187.428,49.7A7.94,7.94,0,0,0,187.178,51.445Z" transform="translate(-54.795 -33.667)" fill="#43425d"/>
      </g>
    </g>
    <g id="Group_6949" data-name="Group 6949" transform="translate(137.89 154)">
      <rect id="Rectangle_2955" data-name="Rectangle 2955" width="80" height="80" rx="16" transform="translate(0.11 0)" fill="url(#linear-gradient)"/>
      <g id="Group_3495" data-name="Group 3495" transform="translate(15.78 18.685)">
        <path id="Path_1584" data-name="Path 1584" d="M113.664,934.423l21.186,5.148c-3.623,5.123-16.786,14.577-31.889,18.294a68.088,68.088,0,0,0-15.533-5.538C91.736,950.526,106.823,944.468,113.664,934.423Z" transform="translate(-85.931 -914.853)" fill="#71a4ff"/>
        <path id="Path_1585" data-name="Path 1585" d="M108.94,930.008l20.132,2.957c-2.818,13.465-12.115,22.154-25.758,26.55C98.947,957.044,92,954.875,87.077,953.9,91.444,950.875,107.213,948.47,108.94,930.008Z" transform="translate(-86.317 -919.693)" fill="#aecbfe"/>
        <path id="Path_1586" data-name="Path 1586" d="M103.418,925.084l20.2,4.139c-.624,10.229-8.476,29.576-19.854,32.457a93.023,93.023,0,0,0-17.05-5.775C91.083,952.884,101.69,943.544,103.418,925.084Z" transform="translate(-86.714 -925.084)" fill="#fff"/>
      </g>
    </g>
  </g>
</svg>
