<svg xmlns="http://www.w3.org/2000/svg" width="26" height="22" viewBox="0 0 26 22">
  <g id="Icon_feather-camera" data-name="Icon feather-camera" transform="translate(1 1)">
    <path id="Path_3942" data-name="Path 3942" d="M25.5,22.278A2.2,2.2,0,0,1,23.318,24.5H3.682A2.2,2.2,0,0,1,1.5,22.278V10.056A2.2,2.2,0,0,1,3.682,7.833H8.045L10.227,4.5h6.545l2.182,3.333h4.364A2.2,2.2,0,0,1,25.5,10.056Z" transform="translate(-1.5 -4.5)" fill="none" stroke="#43425d" stroke-linecap="round" stroke-linejoin="round" stroke-width="2"/>
    <path id="Path_3943" data-name="Path 3943" d="M20.794,17.9a4.4,4.4,0,1,1-4.4-4.4A4.4,4.4,0,0,1,20.794,17.9Z" transform="translate(-4.397 -6.776)" fill="none" stroke="#43425d" stroke-linecap="round" stroke-linejoin="round" stroke-width="2"/>
  </g>
</svg>
