<svg xmlns="http://www.w3.org/2000/svg" width="24" height="24" viewBox="0 0 24 24">
  <g id="activity" transform="translate(-1.25 -0.302)">
    <rect id="Rectangle_14711" data-name="Rectangle 14711" width="24" height="24" transform="translate(1.25 0.301)" fill="none"/>
    <g id="Group_9084" data-name="Group 9084" transform="translate(2.244 1.444)">
      <path id="Path_3892" data-name="Path 3892" d="M16.011,3.869a.809.809,0,1,0,0-1.619H12.724c-1.982,0-3.536,0-4.769.134A6.285,6.285,0,0,0,4.808,3.435,6.206,6.206,0,0,0,3.435,4.808,6.285,6.285,0,0,0,2.384,7.956c-.134,1.233-.134,2.786-.134,4.769v.1c0,1.982,0,3.536.134,4.769a6.285,6.285,0,0,0,1.052,3.147,6.205,6.205,0,0,0,1.373,1.373,6.285,6.285,0,0,0,3.147,1.052c1.233.134,2.786.134,4.768.134h.1c1.982,0,3.536,0,4.768-.134a6.285,6.285,0,0,0,3.147-1.052,6.2,6.2,0,0,0,1.373-1.373,6.285,6.285,0,0,0,1.052-3.147c.134-1.233.134-2.786.134-4.768V9.535a.809.809,0,0,0-1.619,0v3.238c0,2.042,0,3.508-.124,4.643a4.711,4.711,0,0,1-.752,2.37A4.585,4.585,0,0,1,19.786,20.8a4.711,4.711,0,0,1-2.37.752c-1.135.123-2.6.124-4.643.124s-3.508,0-4.643-.124A4.711,4.711,0,0,1,5.76,20.8a4.586,4.586,0,0,1-1.015-1.015,4.711,4.711,0,0,1-.752-2.37c-.123-1.135-.124-2.6-.124-4.643s0-3.508.124-4.643a4.711,4.711,0,0,1,.752-2.37A4.587,4.587,0,0,1,5.76,4.745a4.711,4.711,0,0,1,2.37-.752c1.135-.123,2.6-.124,4.643-.124Z" transform="translate(-2.25 -1.432)" fill="#43425d"/>
      <path id="Path_3893" data-name="Path 3893" d="M6.332,15.081A.824.824,0,0,0,6.7,16.175.8.8,0,0,0,7.775,15.8L9.34,12.555a1.268,1.268,0,0,1,2.328.08,2.864,2.864,0,0,0,5.259.181l1.565-3.246a.824.824,0,0,0-.368-1.094.8.8,0,0,0-1.076.374L15.483,12.1a1.268,1.268,0,0,1-2.328-.08A2.864,2.864,0,0,0,7.9,11.835Z" transform="translate(-1.889 -0.991)" fill="#43425d"/>
      <path id="Path_3894" data-name="Path 3894" d="M17.5,4.226A2.726,2.726,0,1,0,20.226,1.5,2.726,2.726,0,0,0,17.5,4.226Zm1.635,0a1.09,1.09,0,1,0,1.09-1.09A1.09,1.09,0,0,0,19.135,4.226Z" transform="translate(-1.088 -1.5)" fill="#43425d" fill-rule="evenodd"/>
    </g>
  </g>
</svg>
