<svg xmlns="http://www.w3.org/2000/svg" width="24" height="24" viewBox="0 0 24 24">
  <g id="Group_9166" data-name="Group 9166" transform="translate(-24 -477)">
    <path id="Path_3963" data-name="Path 3963" d="M0,0H24V24H0Z" transform="translate(48 477) rotate(90)" fill="none"/>
    <path id="Icon_open-cog" data-name="Icon open-cog" d="M8.708,0,7.461,2.968a3.555,3.555,0,0,0-.7.324L3.8,2.045,2,3.84,3.247,6.808c-.125.249-.224.449-.324.7L-.045,8.753v2.494l2.968,1.247c.1.249.2.449.324.7L2,16.16l1.8,1.8,2.968-1.247c.224.1.449.224.7.324L8.708,20H11.2l1.247-2.968c.224-.1.474-.2.7-.324l2.968,1.247,1.8-1.8-1.247-2.968c.1-.224.224-.474.324-.7l2.968-1.247V8.753L16.987,7.506a4.374,4.374,0,0,0-.324-.7L17.91,3.84l-1.8-1.8L13.147,3.292c-.224-.1-.474-.224-.7-.324L11.2,0H8.708ZM9.955,6.234A3.741,3.741,0,1,1,6.214,9.975,3.736,3.736,0,0,1,9.955,6.234Z" transform="translate(26.045 479)" fill="none" stroke="#43425d" stroke-width="1.8"/>
  </g>
</svg>
