<svg id="Group_9169" data-name="Group 9169" xmlns="http://www.w3.org/2000/svg" width="24" height="24" viewBox="0 0 24 24">
  <path id="Path_3901" data-name="Path 3901" d="M0,0H24V24H0Z" fill="none"/>
  <line id="Line_4924" data-name="Line 4924" x2="18" transform="translate(3 21)" fill="none" stroke="#43425d" stroke-linecap="round" stroke-linejoin="round" stroke-width="1.5"/>
  <path id="Path_3902" data-name="Path 3902" d="M3,7V8A3,3,0,0,0,9,8V7M9,8a3,3,0,0,0,6,0V7m0,1a3,3,0,0,0,6,0V7H3L5,3H19l2,4" fill="none" stroke="#43425d" stroke-linecap="round" stroke-linejoin="round" stroke-width="1.5"/>
  <line id="Line_4925" data-name="Line 4925" y1="10.15" transform="translate(5 10.85)" fill="none" stroke="#43425d" stroke-linecap="round" stroke-linejoin="round" stroke-width="1.5"/>
  <line id="Line_4926" data-name="Line 4926" y1="10.15" transform="translate(19 10.85)" fill="none" stroke="#43425d" stroke-linecap="round" stroke-linejoin="round" stroke-width="1.5"/>
  <path id="Path_3903" data-name="Path 3903" d="M9,21V17a2,2,0,0,1,2-2h2a2,2,0,0,1,2,2v4" fill="none" stroke="#43425d" stroke-linecap="round" stroke-linejoin="round" stroke-width="1.5"/>
</svg>
